<svg xmlns="http://www.w3.org/2000/svg" viewBox="0 0 800 550">
  <rect width="100%" height="100%" fill="white"/>
  
  <!-- Input Tables -->
  <g transform="translate(200, 50)">
    <text x="0" y="-10" font-family="Arial" font-size="16" font-weight="bold">Table A</text>
    <rect width="150" height="100" fill="none" stroke="black"/>
    <line x1="0" y1="25" x2="150" y2="25" stroke="black"/>
    <line x1="50" y1="0" x2="50" y2="100" stroke="black"/>
    <text x="25" y="18" text-anchor="middle" font-family="Arial" font-size="12">ID</text>
    <text x="100" y="18" text-anchor="middle" font-family="Arial" font-size="12">Name</text>
    <text x="25" y="43" text-anchor="middle" font-family="Arial" font-size="12">1</text>
    <text x="100" y="43" text-anchor="middle" font-family="Arial" font-size="12">Alice</text>
    <text x="25" y="68" text-anchor="middle" font-family="Arial" font-size="12">2</text>
    <text x="100" y="68" text-anchor="middle" font-family="Arial" font-size="12">Bob</text>
    <text x="25" y="93" text-anchor="middle" font-family="Arial" font-size="12">3</text>
    <text x="100" y="93" text-anchor="middle" font-family="Arial" font-size="12">Carol</text>
  </g>
  
  <g transform="translate(450, 50)">
    <text x="0" y="-10" font-family="Arial" font-size="16" font-weight="bold">Table B</text>
    <rect width="150" height="100" fill="none" stroke="black"/>
    <line x1="0" y1="25" x2="150" y2="25" stroke="black"/>
    <line x1="50" y1="0" x2="50" y2="100" stroke="black"/>
    <text x="25" y="18" text-anchor="middle" font-family="Arial" font-size="12">ID</text>
    <text x="100" y="18" text-anchor="middle" font-family="Arial" font-size="12">City</text>
    <text x="25" y="43" text-anchor="middle" font-family="Arial" font-size="12">2</text>
    <text x="100" y="43" text-anchor="middle" font-family="Arial" font-size="12">London</text>
    <text x="25" y="68" text-anchor="middle" font-family="Arial" font-size="12">3</text>
    <text x="100" y="68" text-anchor="middle" font-family="Arial" font-size="12">Paris</text>
    <text x="25" y="93" text-anchor="middle" font-family="Arial" font-size="12">4</text>
    <text x="100" y="93" text-anchor="middle" font-family="Arial" font-size="12">Berlin</text>
  </g>
  
  <!-- Inner Join -->
 <g transform="translate(50, 230)">
  <text x="125" y="-20" text-anchor="middle" font-family="Arial" font-size="16" font-weight="bold">Inner Join</text>
  <circle cx="100" cy="75" r="60" fill="#ff9999" opacity="0.6"/>
  <circle cx="150" cy="75" r="60" fill="#9999ff" opacity="0.6"/>
  <path d="M 128 21 A 90 70 0 0 1 130 130 A 97 70 0 0 1 128 21" fill="none" stroke="black" stroke-width="3"/>

    <!-- Result Table -->
    <g transform="translate(25, 150)">
      <rect width="200" height="75" fill="none" stroke="black"/>
      <line x1="0" y1="25" x2="200" y2="25" stroke="black"/>
      <line x1="50" y1="0" x2="50" y2="75" stroke="black"/>
      <line x1="125" y1="0" x2="125" y2="75" stroke="black"/>
      <text x="25" y="18" text-anchor="middle" font-family="Arial" font-size="12">ID</text>
      <text x="87" y="18" text-anchor="middle" font-family="Arial" font-size="12">Name</text>
      <text x="162" y="18" text-anchor="middle" font-family="Arial" font-size="12">City</text>
      <text x="25" y="43" text-anchor="middle" font-family="Arial" font-size="12">2</text>
      <text x="87" y="43" text-anchor="middle" font-family="Arial" font-size="12">Bob</text>
      <text x="162" y="43" text-anchor="middle" font-family="Arial" font-size="12">London</text>
      <text x="25" y="68" text-anchor="middle" font-family="Arial" font-size="12">3</text>
      <text x="87" y="68" text-anchor="middle" font-family="Arial" font-size="12">Carol</text>
      <text x="162" y="68" text-anchor="middle" font-family="Arial" font-size="12">Paris</text>
    </g>
  </g>
  
  <!-- Left Join -->
  <g transform="translate(300, 230)">
    <text x="125" y="-20" text-anchor="middle" font-family="Arial" font-size="16" font-weight="bold">Left Join</text>
    <circle cx="100" cy="75" r="60" fill="#ff9999" opacity="0.6"/>
    <circle cx="150" cy="75" r="60" fill="#9999ff" opacity="0.6"/>
    <circle cx="100" cy="75" r="60" fill="none" stroke="black" stroke-width="3"/>
    
    <!-- Result Table -->
    <g transform="translate(25, 150)">
      <rect width="200" height="100" fill="none" stroke="black"/>
      <line x1="0" y1="25" x2="200" y2="25" stroke="black"/>
      <line x1="50" y1="0" x2="50" y2="100" stroke="black"/>
      <line x1="125" y1="0" x2="125" y2="100" stroke="black"/>
      <text x="25" y="18" text-anchor="middle" font-family="Arial" font-size="12">ID</text>
      <text x="87" y="18" text-anchor="middle" font-family="Arial" font-size="12">Name</text>
      <text x="162" y="18" text-anchor="middle" font-family="Arial" font-size="12">City</text>
      <text x="25" y="43" text-anchor="middle" font-family="Arial" font-size="12">1</text>
      <text x="87" y="43" text-anchor="middle" font-family="Arial" font-size="12">Alice</text>
      <text x="162" y="43" text-anchor="middle" font-family="Arial" font-size="12">NULL</text>
      <text x="25" y="68" text-anchor="middle" font-family="Arial" font-size="12">2</text>
      <text x="87" y="68" text-anchor="middle" font-family="Arial" font-size="12">Bob</text>
      <text x="162" y="68" text-anchor="middle" font-family="Arial" font-size="12">London</text>
      <text x="25" y="93" text-anchor="middle" font-family="Arial" font-size="12">3</text>
      <text x="87" y="93" text-anchor="middle" font-family="Arial" font-size="12">Carol</text>
      <text x="162" y="93" text-anchor="middle" font-family="Arial" font-size="12">Paris</text>
    </g>
  </g>
  
  <!-- Outer Join -->
  <g transform="translate(550, 230)">
    <text x="125" y="-20" text-anchor="middle" font-family="Arial" font-size="16" font-weight="bold">Outer Join</text>
    <circle cx="100" cy="75" r="60" fill="#ff9999" opacity="0.6"/>
    <circle cx="150" cy="75" r="60" fill="#9999ff" opacity="0.6"/>
      <path d="M 126 20 A 60 60 0 1 0 126 130" fill="none" stroke="black" stroke-width="3"/>
      <path d="M 126 20 A 60 60 0 1 1 126 130" fill="none" stroke="black" stroke-width="3"/>    


    <!-- Result Table -->
    <g transform="translate(25, 150)">
      <rect width="200" height="125" fill="none" stroke="black"/>
      <line x1="0" y1="25" x2="200" y2="25" stroke="black"/>
      <line x1="50" y1="0" x2="50" y2="125" stroke="black"/>
      <line x1="125" y1="0" x2="125" y2="125" stroke="black"/>
      <text x="25" y="18" text-anchor="middle" font-family="Arial" font-size="12">ID</text>
      <text x="87" y="18" text-anchor="middle" font-family="Arial" font-size="12">Name</text>
      <text x="162" y="18" text-anchor="middle" font-family="Arial" font-size="12">City</text>
      <text x="25" y="43" text-anchor="middle" font-family="Arial" font-size="12">1</text>
      <text x="87" y="43" text-anchor="middle" font-family="Arial" font-size="12">Alice</text>
      <text x="162" y="43" text-anchor="middle" font-family="Arial" font-size="12">NULL</text>
      <text x="25" y="68" text-anchor="middle" font-family="Arial" font-size="12">2</text>
      <text x="87" y="68" text-anchor="middle" font-family="Arial" font-size="12">Bob</text>
      <text x="162" y="68" text-anchor="middle" font-family="Arial" font-size="12">London</text>
      <text x="25" y="93" text-anchor="middle" font-family="Arial" font-size="12">3</text>
      <text x="87" y="93" text-anchor="middle" font-family="Arial" font-size="12">Carol</text>
      <text x="162" y="93" text-anchor="middle" font-family="Arial" font-size="12">Paris</text>
      <text x="25" y="118" text-anchor="middle" font-family="Arial" font-size="12">4</text>
      <text x="87" y="118" text-anchor="middle" font-family="Arial" font-size="12">NULL</text>
      <text x="162" y="118" text-anchor="middle" font-family="Arial" font-size="12">Berlin</text>
    </g>
  </g>
</svg>
